<svg width="158" height="152" viewBox="0 0 158 152" fill="none" xmlns="http://www.w3.org/2000/svg">
<path d="M144.18 85.4852V143.711C144.18 147.074 141.586 149.797 138.385 149.797H19.6144C16.4128 149.797 13.8193 147.074 13.8193 143.711V85.4852L78.9995 16.8955L144.18 85.4852Z" fill="#C7F79F" stroke="#303030" stroke-width="4" stroke-miterlimit="10" stroke-linecap="round" stroke-linejoin="round"/>
<path d="M149.97 88.957C148.489 88.957 147.002 88.3645 145.874 87.1743L78.9998 16.8955L12.1253 87.1743C9.86444 89.5495 6.19509 89.5495 3.92904 87.1743C1.66818 84.7939 1.66818 80.9427 3.92904 78.5623L74.8991 3.98007C77.16 1.60487 80.8293 1.60487 83.0954 3.98007L154.065 78.5623C156.326 80.9427 156.326 84.7939 154.065 87.1743C152.938 88.3593 151.456 88.957 149.97 88.957Z" fill="#56862E" stroke="#303030" stroke-width="4" stroke-miterlimit="10"/>
<path d="M33.736 37.7318H19.251V62.0866L33.736 47.2377V37.7318Z" fill="#56862E" stroke="#303030" stroke-width="4" stroke-miterlimit="10" stroke-linecap="round" stroke-linejoin="round"/>
<path d="M26.4959 29.1717C26.4959 29.1717 21.6052 22.8361 26.4959 16.4901C31.3866 10.1441 26.4959 4.81683 26.4959 4.81683" stroke="#303030" stroke-width="4" stroke-miterlimit="10" stroke-linecap="round" stroke-linejoin="round"/>
<path d="M120.579 149.803H37.4209V112.761C37.4209 108.167 41.1422 104.445 45.7367 104.445H112.263C116.857 104.445 120.579 108.167 120.579 112.761V149.803Z" fill="#56862E" stroke="#303030" stroke-width="4" stroke-miterlimit="10" stroke-linecap="round" stroke-linejoin="round"/>
<path d="M79.0002 115.869C89.437 115.869 97.8978 107.408 97.8978 96.9714C97.8978 86.5345 89.437 78.0737 79.0002 78.0737C68.5633 78.0737 60.1025 86.5345 60.1025 96.9714C60.1025 107.408 68.5633 115.869 79.0002 115.869Z" fill="#56862E" stroke="#303030" stroke-width="4" stroke-miterlimit="10" stroke-linecap="round" stroke-linejoin="round"/>
</svg>
