<svg width="1178" height="186" viewBox="0 0 1178 186" fill="none" xmlns="http://www.w3.org/2000/svg">
<path d="M91.1541 135.953C91.5815 136.117 91.9914 136.287 92.3954 136.457C97.0796 134.823 108.983 128.459 118.399 122.82L118.767 122.597L119.16 122.41C121.273 121.397 123.534 120.882 125.876 120.882C129.565 120.882 133.084 122.217 135.841 124.512V97.8883C135.841 87.542 127.451 79.1514 117.105 79.1514H60.8941C50.5478 79.1514 42.1572 87.542 42.1572 97.8883V114.271C48.5746 115.068 56.4148 118.341 66.521 125.771C73.641 131.105 80.8078 133.02 86.0366 134.413C87.9747 134.929 89.6493 135.38 91.1541 135.953Z" fill="#E38127" stroke="#333332" stroke-width="4" stroke-miterlimit="10" stroke-linecap="round" stroke-linejoin="round"/>
<path d="M88.9997 92.0213C100.758 92.0213 110.289 82.4896 110.289 70.7316C110.289 58.9736 100.758 49.4418 88.9997 49.4418C77.2417 49.4418 67.71 58.9736 67.71 70.7316C67.71 82.4896 77.2417 92.0213 88.9997 92.0213Z" fill="#E38127" stroke="#333332" stroke-width="4" stroke-miterlimit="10" stroke-linecap="round" stroke-linejoin="round"/>
<path d="M91.4766 146.089C96.2545 147.008 123.218 130.859 123.218 130.859C126.292 129.384 129.975 130.678 131.45 133.752C132.03 134.964 132.147 136.27 131.866 137.482L119.851 143.091L99.5685 151.142L94.451 151.768L91.4766 146.089Z" fill="#FBB53C" stroke="#333332" stroke-width="4" stroke-miterlimit="22.926" stroke-linecap="round" stroke-linejoin="round"/>
<path d="M56.2697 145.205C56.2697 145.205 56.2697 145.205 67.8397 150.445C79.4097 155.686 92.7129 159.316 94.1182 154.21C95.5234 149.104 92.303 146.411 87.8238 144.707C83.3445 143.003 72.1024 141.656 60.9657 133.319C38.622 116.871 32.8136 125.25 27.4853 127.803C22.157 130.356 2.33691 139.871 2.33691 139.871L15.8157 167.958C15.8157 167.958 25.8751 163.128 30.8872 160.727C35.8993 158.32 46.6671 158.806 59.8122 165.856C72.9572 172.906 83.2215 175.283 100.29 167.092L136.393 149.766C139.262 148.39 140.468 144.947 139.092 142.084C137.353 138.459 133.032 136.925 129.402 138.653C119.425 143.401 101.033 151.815 96.1968 151.739" fill="#FBB53C"/>
<path d="M56.2697 145.205C56.2697 145.205 56.2697 145.205 67.8397 150.445C79.4097 155.686 92.7129 159.316 94.1182 154.21C95.5234 149.104 92.303 146.411 87.8238 144.707C83.3445 143.003 72.1024 141.656 60.9657 133.319C38.622 116.871 32.8136 125.25 27.4853 127.803C22.157 130.356 2.33691 139.871 2.33691 139.871L15.8157 167.958C15.8157 167.958 25.8751 163.128 30.8872 160.727C35.8993 158.32 46.6671 158.806 59.8122 165.856C72.9572 172.906 83.2215 175.283 100.29 167.092L136.393 149.766C139.262 148.39 140.468 144.947 139.092 142.084C137.353 138.459 133.032 136.925 129.402 138.653C119.425 143.401 101.033 151.815 96.1968 151.739" stroke="#333332" stroke-width="4" stroke-miterlimit="22.926" stroke-linecap="round" stroke-linejoin="round"/>
<path d="M86.523 31.9112C81.7451 30.9919 54.7816 47.1407 54.7816 47.1407C51.7076 48.6162 48.0246 47.3222 46.5491 44.2482C45.9694 43.0362 45.8523 41.7304 46.1334 40.5184L58.1484 34.9091L78.431 26.8581L83.5485 26.2316L86.523 31.9112Z" fill="#FBB53C" stroke="#333332" stroke-width="4" stroke-miterlimit="22.926" stroke-linecap="round" stroke-linejoin="round"/>
<path d="M121.731 32.7953C121.731 32.7953 121.731 32.7953 110.161 27.5549C98.5912 22.3144 85.2881 18.6841 83.8828 23.7899C82.4775 28.8957 85.6979 31.5891 90.1772 33.293C94.6565 34.9969 105.899 36.3436 117.035 44.6815C139.379 61.1289 145.187 52.75 150.516 50.1972C155.838 47.6443 175.664 38.1295 175.664 38.1295L162.185 10.0418C162.185 10.0418 152.126 14.8724 147.114 17.273C142.102 19.6795 131.334 19.1935 118.189 12.1438C105.044 5.09406 94.7795 2.71683 77.7114 10.9083L41.6078 28.2341C38.7387 29.6101 37.5325 33.0529 38.9085 35.9162C40.6475 39.5406 44.9687 41.0747 48.599 39.3474C58.5764 34.5987 76.9677 26.1847 81.8042 26.2608" fill="#FBB53C"/>
<path d="M121.731 32.7953C121.731 32.7953 121.731 32.7953 110.161 27.5549C98.5912 22.3144 85.2881 18.6841 83.8828 23.7899C82.4775 28.8957 85.6979 31.5891 90.1772 33.293C94.6565 34.9969 105.899 36.3436 117.035 44.6815C139.379 61.1289 145.187 52.7501 150.516 50.1972C155.838 47.6443 175.664 38.1295 175.664 38.1295L162.185 10.0418C162.185 10.0418 152.126 14.8724 147.114 17.273C142.102 19.6795 131.334 19.1935 118.189 12.1438C105.044 5.09406 94.7795 2.71683 77.7114 10.9083L41.6078 28.2341C38.7387 29.6101 37.5325 33.0529 38.9085 35.9162C40.6475 39.5406 44.9687 41.0747 48.599 39.3473C58.5764 34.5987 76.9677 26.1847 81.8042 26.2608" stroke="#333332" stroke-width="4" stroke-miterlimit="22.926" stroke-linecap="round" stroke-linejoin="round"/>
<path d="M91.4766 146.089C96.2545 147.008 123.218 130.859 123.218 130.859C126.292 129.384 129.975 130.678 131.45 133.752C132.03 134.964 132.147 136.27 131.866 137.482L119.851 143.091L99.5685 151.142L94.451 151.768L91.4766 146.089Z" fill="#FBB53C" stroke="#333332" stroke-width="4" stroke-miterlimit="22.926" stroke-linecap="round" stroke-linejoin="round"/>
<path d="M56.2697 145.205C56.2697 145.205 56.2697 145.205 67.8397 150.445C79.4097 155.686 92.7129 159.316 94.1182 154.21C95.5234 149.104 92.303 146.411 87.8238 144.707C83.3445 143.003 72.1024 141.656 60.9657 133.319C38.622 116.871 32.8136 125.25 27.4853 127.803C22.157 130.356 2.33691 139.871 2.33691 139.871L15.8157 167.958C15.8157 167.958 25.8751 163.128 30.8872 160.727C35.8993 158.32 46.6671 158.806 59.8122 165.856C72.9572 172.906 83.2215 175.283 100.29 167.092L136.393 149.766C139.262 148.39 140.468 144.947 139.092 142.084C137.353 138.459 133.032 136.925 129.402 138.653C119.425 143.401 101.033 151.815 96.1968 151.739" fill="#FBB53C"/>
<path d="M56.2697 145.205C56.2697 145.205 56.2697 145.205 67.8397 150.445C79.4097 155.686 92.7129 159.316 94.1182 154.21C95.5234 149.104 92.303 146.411 87.8238 144.707C83.3445 143.003 72.1024 141.656 60.9657 133.319C38.622 116.871 32.8136 125.25 27.4853 127.803C22.157 130.356 2.33691 139.871 2.33691 139.871L15.8157 167.958C15.8157 167.958 25.8751 163.128 30.8872 160.727C35.8993 158.32 46.6671 158.806 59.8122 165.856C72.9572 172.906 83.2215 175.283 100.29 167.092L136.393 149.766C139.262 148.39 140.468 144.947 139.092 142.084C137.353 138.459 133.032 136.925 129.402 138.653C119.425 143.401 101.033 151.815 96.1968 151.739" stroke="#333332" stroke-width="4" stroke-miterlimit="22.926" stroke-linecap="round" stroke-linejoin="round"/>
<rect x="398" y="58" width="500" height="8" fill="#E38025"/>
<rect x="898" y="104" width="180" height="8" fill="#E38025"/>
<rect x="1098" y="178" width="80" height="8" fill="#E38025"/>
</svg>
