<svg width="308" height="128" viewBox="0 0 308 128" fill="none" xmlns="http://www.w3.org/2000/svg">
<path d="M40.9683 61.1026C41.1604 61.1763 41.3446 61.2526 41.5262 61.3289C43.6315 60.5947 48.9815 57.7342 53.213 55.2L53.3788 55.1L53.5551 55.0158C54.5051 54.5605 55.5209 54.3289 56.5736 54.3289C58.2315 54.3289 59.813 54.9289 61.0525 55.9605V43.9947C61.0525 39.3447 57.2815 35.5737 52.6315 35.5737H27.3683C22.7183 35.5737 18.9473 39.3447 18.9473 43.9947V51.3579C21.8315 51.7158 25.3552 53.1868 29.8973 56.5263C33.0973 58.9237 36.3183 59.7842 38.6683 60.4105C39.5394 60.6421 40.292 60.8447 40.9683 61.1026Z" fill="#E38127" stroke="#333332" stroke-width="2" stroke-miterlimit="10" stroke-linecap="round" stroke-linejoin="round"/>
<path d="M40.0001 41.3579C45.2846 41.3579 49.5685 37.074 49.5685 31.7895C49.5685 26.505 45.2846 22.221 40.0001 22.221C34.7156 22.221 30.4316 26.505 30.4316 31.7895C30.4316 37.074 34.7156 41.3579 40.0001 41.3579Z" fill="#E38127" stroke="#333332" stroke-width="2" stroke-miterlimit="10" stroke-linecap="round" stroke-linejoin="round"/>
<path d="M41.1123 65.6579C43.2597 66.0711 55.3781 58.8132 55.3781 58.8132C56.7597 58.15 58.4149 58.7316 59.0781 60.1132C59.3386 60.6579 59.3912 61.2448 59.2649 61.7895L53.8649 64.3105L44.7491 67.929L42.4492 68.2105L41.1123 65.6579Z" fill="#FBB53C" stroke="#333332" stroke-width="2" stroke-miterlimit="22.926" stroke-linecap="round" stroke-linejoin="round"/>
<path d="M25.2893 65.2606C25.2893 65.2606 25.2893 65.2606 30.4893 67.6158C35.6893 69.9711 41.6682 71.6027 42.2998 69.3079C42.9314 67.0132 41.484 65.8027 39.4709 65.0369C37.4577 64.2711 32.4051 63.6658 27.3998 59.9184C17.3577 52.5263 14.7472 56.2921 12.3524 57.4395C9.9577 58.5869 1.0498 62.8632 1.0498 62.8632L7.10769 75.4869C7.10769 75.4869 11.6288 73.3158 13.8814 72.2369C16.134 71.1553 20.9735 71.3737 26.8814 74.5421C32.7893 77.7105 37.4024 78.779 45.0735 75.0974L61.2998 67.3105C62.5893 66.6921 63.1314 65.1448 62.513 63.8579C61.7314 62.229 59.7893 61.5395 58.1577 62.3158C53.6735 64.45 45.4077 68.2316 43.234 68.1974" fill="#FBB53C"/>
<path d="M25.2893 65.2606C25.2893 65.2606 25.2893 65.2606 30.4893 67.6158C35.6893 69.9711 41.6682 71.6027 42.2998 69.3079C42.9314 67.0132 41.484 65.8027 39.4709 65.0369C37.4577 64.2711 32.4051 63.6658 27.3998 59.9184C17.3577 52.5263 14.7472 56.2921 12.3524 57.4395C9.9577 58.5869 1.0498 62.8632 1.0498 62.8632L7.10769 75.4869C7.10769 75.4869 11.6288 73.3158 13.8814 72.2369C16.134 71.1553 20.9735 71.3737 26.8814 74.5421C32.7893 77.7105 37.4024 78.779 45.0735 75.0974L61.2998 67.3105C62.5893 66.6921 63.1314 65.1448 62.513 63.8579C61.7314 62.229 59.7893 61.5395 58.1577 62.3158C53.6735 64.45 45.4077 68.2316 43.234 68.1974" stroke="#333332" stroke-width="2" stroke-miterlimit="22.926" stroke-linecap="round" stroke-linejoin="round"/>
<path d="M38.8862 14.3421C36.7389 13.9289 24.6205 21.1868 24.6205 21.1868C23.2389 21.85 21.5836 21.2684 20.9205 19.8868C20.6599 19.3421 20.6073 18.7552 20.7336 18.2105L26.1336 15.6895L35.2494 12.071L37.5494 11.7895L38.8862 14.3421Z" fill="#FBB53C" stroke="#333332" stroke-width="2" stroke-miterlimit="22.926" stroke-linecap="round" stroke-linejoin="round"/>
<path d="M54.7107 14.7395C54.7107 14.7395 54.7107 14.7395 49.5107 12.3842C44.3107 10.0289 38.3318 8.39736 37.7002 10.6921C37.0686 12.9868 38.516 14.1974 40.5291 14.9632C42.5423 15.7289 47.5949 16.3342 52.6002 20.0816C62.6423 27.4737 65.2528 23.7079 67.6476 22.5605C70.0397 21.4132 78.9502 17.1368 78.9502 17.1368L72.8923 4.51315C72.8923 4.51315 68.3713 6.6842 66.1186 7.76315C63.866 8.84473 59.0265 8.62631 53.1186 5.45789C47.2107 2.28947 42.5976 1.22105 34.9265 4.90262L18.7002 12.6895C17.4107 13.3079 16.8686 14.8553 17.487 16.1421C18.2686 17.771 20.2107 18.4605 21.8423 17.6842C26.3265 15.55 34.5923 11.7684 36.766 11.8026" fill="#FBB53C"/>
<path d="M54.7107 14.7395C54.7107 14.7395 54.7107 14.7395 49.5107 12.3842C44.3107 10.0289 38.3318 8.39736 37.7002 10.6921C37.0686 12.9868 38.516 14.1974 40.5291 14.9632C42.5423 15.7289 47.5949 16.3342 52.6002 20.0816C62.6423 27.4737 65.2528 23.7079 67.6476 22.5605C70.0397 21.4132 78.9502 17.1368 78.9502 17.1368L72.8923 4.51315C72.8923 4.51315 68.3712 6.6842 66.1186 7.76315C63.866 8.84473 59.0265 8.62631 53.1186 5.45789C47.2107 2.28947 42.5976 1.22105 34.9265 4.90262L18.7002 12.6895C17.4107 13.3079 16.8686 14.8553 17.487 16.1421C18.2686 17.771 20.2107 18.4605 21.8423 17.6842C26.3265 15.55 34.5923 11.7684 36.766 11.8026" stroke="#333332" stroke-width="2" stroke-miterlimit="22.926" stroke-linecap="round" stroke-linejoin="round"/>
<path d="M41.1133 65.6579C43.2606 66.0711 55.3791 58.8132 55.3791 58.8132C56.7607 58.15 58.4159 58.7316 59.0791 60.1132C59.3396 60.6579 59.3922 61.2448 59.2659 61.7895L53.8659 64.3105L44.7501 67.929L42.4501 68.2105L41.1133 65.6579Z" fill="#FBB53C" stroke="#333332" stroke-width="2" stroke-miterlimit="22.926" stroke-linecap="round" stroke-linejoin="round"/>
<path d="M25.2893 65.2605C25.2893 65.2605 25.2893 65.2605 30.4893 67.6158C35.6893 69.971 41.6682 71.6026 42.2998 69.3079C42.9314 67.0131 41.484 65.8026 39.4709 65.0368C37.4577 64.271 32.4051 63.6658 27.3998 59.9184C17.3577 52.5263 14.7472 56.2921 12.3524 57.4395C9.9577 58.5868 1.0498 62.8632 1.0498 62.8632L7.10769 75.4868C7.10769 75.4868 11.6288 73.3158 13.8814 72.2368C16.134 71.1553 20.9735 71.3737 26.8814 74.5421C32.7893 77.7105 37.4024 78.7789 45.0735 75.0974L61.2998 67.3105C62.5893 66.6921 63.1314 65.1447 62.513 63.8579C61.7314 62.2289 59.7893 61.5395 58.1577 62.3158C53.6735 64.45 45.4077 68.2316 43.234 68.1974" fill="#FBB53C"/>
<path d="M25.2893 65.2605C25.2893 65.2605 25.2893 65.2605 30.4893 67.6158C35.6893 69.971 41.6682 71.6026 42.2998 69.3079C42.9314 67.0131 41.484 65.8026 39.4709 65.0368C37.4577 64.271 32.4051 63.6658 27.3998 59.9184C17.3577 52.5263 14.7472 56.2921 12.3524 57.4395C9.9577 58.5868 1.0498 62.8632 1.0498 62.8632L7.10769 75.4868C7.10769 75.4868 11.6288 73.3158 13.8814 72.2368C16.134 71.1553 20.9735 71.3737 26.8814 74.5421C32.7893 77.7105 37.4024 78.7789 45.0735 75.0974L61.2998 67.3105C62.5893 66.6921 63.1314 65.1447 62.513 63.8579C61.7314 62.2289 59.7893 61.5395 58.1577 62.3158C53.6735 64.45 45.4077 68.2316 43.234 68.1974" stroke="#333332" stroke-width="2" stroke-miterlimit="22.926" stroke-linecap="round" stroke-linejoin="round"/>
<rect x="160" y="64" width="148" height="8" fill="#E38025"/>
<rect x="80" y="96" width="118" height="8" fill="#E38025"/>
<rect x="220" y="120" width="80" height="8" fill="#E38025"/>
</svg>
