<svg width="158" height="158" viewBox="0 0 158 158" fill="none" xmlns="http://www.w3.org/2000/svg">
<path d="M144.18 88.4852V146.711C144.18 150.074 141.586 152.797 138.385 152.797H19.6144C16.4128 152.797 13.8193 150.074 13.8193 146.711V88.4852L78.9995 19.8955L144.18 88.4852Z" fill="#C7F79F" stroke="#303030" stroke-width="4" stroke-miterlimit="10" stroke-linecap="round" stroke-linejoin="round"/>
<path d="M149.97 91.957C148.489 91.957 147.002 91.3645 145.874 90.1743L78.9998 19.8955L12.1253 90.1743C9.86444 92.5495 6.19509 92.5495 3.92904 90.1743C1.66818 87.7939 1.66818 83.9427 3.92904 81.5623L74.8991 6.98007C77.16 4.60487 80.8293 4.60487 83.0954 6.98007L154.065 81.5623C156.326 83.9427 156.326 87.7939 154.065 90.1743C152.938 91.3593 151.456 91.957 149.97 91.957Z" fill="#56862E" stroke="#303030" stroke-width="4" stroke-miterlimit="10"/>
<path d="M33.736 40.7318H19.251V65.0866L33.736 50.2377V40.7318Z" fill="#56862E" stroke="#303030" stroke-width="4" stroke-miterlimit="10" stroke-linecap="round" stroke-linejoin="round"/>
<path d="M26.4959 32.1717C26.4959 32.1717 21.6052 25.8361 26.4959 19.4901C31.3866 13.1441 26.4959 7.81683 26.4959 7.81683" stroke="#303030" stroke-width="4" stroke-miterlimit="10" stroke-linecap="round" stroke-linejoin="round"/>
<path d="M120.579 152.803H37.4209V115.761C37.4209 111.167 41.1422 107.445 45.7367 107.445H112.263C116.857 107.445 120.579 111.167 120.579 115.761V152.803Z" fill="#56862E" stroke="#303030" stroke-width="4" stroke-miterlimit="10" stroke-linecap="round" stroke-linejoin="round"/>
<path d="M79.0002 118.869C89.437 118.869 97.8978 110.408 97.8978 99.9714C97.8978 89.5345 89.437 81.0737 79.0002 81.0737C68.5633 81.0737 60.1025 89.5345 60.1025 99.9714C60.1025 110.408 68.5633 118.869 79.0002 118.869Z" fill="#56862E" stroke="#303030" stroke-width="4" stroke-miterlimit="10" stroke-linecap="round" stroke-linejoin="round"/>
</svg>
