<svg width="127" height="48" viewBox="0 0 127 48" fill="none" xmlns="http://www.w3.org/2000/svg">
<path d="M7.31836 36.4688L5.8418 45H4.78711L6.10547 37.3945H2.88281L1.55859 45H0.503906L1.98633 36.4688H7.31836ZM7.85156 42.1348L7.92773 41.5371C7.97852 41.1582 8.07227 40.7891 8.20898 40.4297C8.34961 40.0703 8.53516 39.7461 8.76562 39.457C8.99609 39.168 9.27344 38.9395 9.59766 38.7715C9.92578 38.6035 10.3047 38.5273 10.7344 38.543C11.1406 38.5547 11.4785 38.6504 11.748 38.8301C12.0176 39.0059 12.2266 39.2383 12.375 39.5273C12.5273 39.8164 12.627 40.1348 12.6738 40.4824C12.7207 40.8301 12.7266 41.1797 12.6914 41.5312L12.6152 42.1348C12.5645 42.5098 12.4688 42.8789 12.3281 43.2422C12.1914 43.6016 12.0059 43.9258 11.7715 44.2148C11.541 44.5 11.2617 44.7266 10.9336 44.8945C10.6094 45.0586 10.2344 45.1328 9.80859 45.1172C9.39844 45.1094 9.05859 45.0156 8.78906 44.8359C8.52344 44.6562 8.31445 44.4219 8.16211 44.1328C8.01367 43.8438 7.91602 43.5254 7.86914 43.1777C7.82227 42.8301 7.81641 42.4824 7.85156 42.1348ZM8.94141 41.5312L8.86523 42.1465C8.8457 42.3418 8.83789 42.5586 8.8418 42.7969C8.8457 43.0312 8.87891 43.2559 8.94141 43.4707C9.00391 43.6855 9.10742 43.8652 9.25195 44.0098C9.40039 44.1504 9.60547 44.2266 9.86719 44.2383C10.1641 44.2539 10.4141 44.1992 10.6172 44.0742C10.8242 43.9492 10.9941 43.7832 11.127 43.5762C11.2637 43.3652 11.3691 43.1348 11.4434 42.8848C11.5176 42.6309 11.5703 42.3809 11.6016 42.1348L11.6777 41.5254C11.6973 41.3301 11.7051 41.1152 11.7012 40.8809C11.6973 40.6465 11.6641 40.4219 11.6016 40.207C11.5391 39.9883 11.4336 39.8066 11.2852 39.6621C11.1406 39.5176 10.9355 39.4395 10.6699 39.4277C10.3926 39.416 10.1504 39.4746 9.94336 39.6035C9.74023 39.7285 9.57031 39.8984 9.43359 40.1133C9.29688 40.3281 9.1875 40.5605 9.10547 40.8105C9.02734 41.0605 8.97266 41.3008 8.94141 41.5312ZM16.6465 43.5469L19.1367 38.6602H20.1445L16.793 45H16.0898L14.9473 38.6602H15.8613L16.6465 43.5469ZM15.5977 38.6602L14.4961 45H13.4883L14.5898 38.6602H15.5977ZM18.3047 45L19.4062 38.6602H20.4258L19.3242 45H18.3047ZM21.2227 42.1348L21.2988 41.5371C21.3496 41.1582 21.4434 40.7891 21.5801 40.4297C21.7207 40.0703 21.9062 39.7461 22.1367 39.457C22.3672 39.168 22.6445 38.9395 22.9688 38.7715C23.2969 38.6035 23.6758 38.5273 24.1055 38.543C24.5117 38.5547 24.8496 38.6504 25.1191 38.8301C25.3887 39.0059 25.5977 39.2383 25.7461 39.5273C25.8984 39.8164 25.998 40.1348 26.0449 40.4824C26.0918 40.8301 26.0977 41.1797 26.0625 41.5312L25.9863 42.1348C25.9355 42.5098 25.8398 42.8789 25.6992 43.2422C25.5625 43.6016 25.377 43.9258 25.1426 44.2148C24.9121 44.5 24.6328 44.7266 24.3047 44.8945C23.9805 45.0586 23.6055 45.1328 23.1797 45.1172C22.7695 45.1094 22.4297 45.0156 22.1602 44.8359C21.8945 44.6562 21.6855 44.4219 21.5332 44.1328C21.3848 43.8438 21.2871 43.5254 21.2402 43.1777C21.1934 42.8301 21.1875 42.4824 21.2227 42.1348ZM22.3125 41.5312L22.2363 42.1465C22.2168 42.3418 22.209 42.5586 22.2129 42.7969C22.2168 43.0312 22.25 43.2559 22.3125 43.4707C22.375 43.6855 22.4785 43.8652 22.623 44.0098C22.7715 44.1504 22.9766 44.2266 23.2383 44.2383C23.5352 44.2539 23.7852 44.1992 23.9883 44.0742C24.1953 43.9492 24.3652 43.7832 24.498 43.5762C24.6348 43.3652 24.7402 43.1348 24.8145 42.8848C24.8887 42.6309 24.9414 42.3809 24.9727 42.1348L25.0488 41.5254C25.0684 41.3301 25.0762 41.1152 25.0723 40.8809C25.0684 40.6465 25.0352 40.4219 24.9727 40.207C24.9102 39.9883 24.8047 39.8066 24.6562 39.6621C24.5117 39.5176 24.3066 39.4395 24.041 39.4277C23.7637 39.416 23.5215 39.4746 23.3145 39.6035C23.1113 39.7285 22.9414 39.8984 22.8047 40.1133C22.668 40.3281 22.5586 40.5605 22.4766 40.8105C22.3984 41.0605 22.3438 41.3008 22.3125 41.5312ZM31.2598 38.6602L31.1016 39.5566H28.8047L27.8613 45H26.8477L27.9492 38.6602H31.2598ZM34.3066 43.916L34.8633 40.4648C34.8828 40.2617 34.8711 40.084 34.8281 39.9316C34.7891 39.7754 34.707 39.6523 34.582 39.5625C34.4609 39.4727 34.2891 39.4277 34.0664 39.4277C33.8633 39.4238 33.6816 39.4648 33.5215 39.5508C33.3613 39.6328 33.2285 39.748 33.123 39.8965C33.0215 40.0449 32.9512 40.2168 32.9121 40.4121L31.9102 40.418C31.9375 40.1328 32.0176 39.875 32.1504 39.6445C32.2871 39.4102 32.4609 39.2109 32.6719 39.0469C32.8828 38.8789 33.1172 38.752 33.375 38.666C33.6328 38.5762 33.9004 38.5332 34.1777 38.5371C34.5762 38.541 34.9082 38.625 35.1738 38.7891C35.4395 38.9492 35.6309 39.1758 35.748 39.4688C35.8691 39.7578 35.9102 40.0977 35.8711 40.4883L35.3555 43.6172C35.3203 43.8398 35.3066 44.0547 35.3145 44.2617C35.3223 44.4688 35.332 44.6816 35.3438 44.9004L35.332 45L34.3184 45.0059C34.2793 44.8262 34.2617 44.6445 34.2656 44.4609C34.2695 44.2773 34.2832 44.0957 34.3066 43.916ZM34.9395 41.1562L34.8164 41.918L34.1719 41.9121C33.9648 41.9121 33.7578 41.9355 33.5508 41.9824C33.3477 42.0293 33.1582 42.1035 32.9824 42.2051C32.8105 42.3027 32.666 42.4336 32.5488 42.5977C32.4355 42.7578 32.3652 42.9551 32.3379 43.1895C32.3145 43.3809 32.3203 43.5527 32.3555 43.7051C32.3945 43.8535 32.4707 43.9727 32.584 44.0625C32.7012 44.1484 32.8652 44.1914 33.0762 44.1914C33.2949 44.1914 33.5059 44.1426 33.709 44.0449C33.9121 43.9473 34.0859 43.8145 34.2305 43.6465C34.3789 43.4785 34.4766 43.2871 34.5234 43.0723L34.6816 43.5645C34.6348 43.7676 34.5547 43.9648 34.4414 44.1562C34.332 44.3438 34.1973 44.5117 34.0371 44.6602C33.877 44.8047 33.6973 44.918 33.498 45C33.3027 45.0859 33.0938 45.1289 32.8711 45.1289C32.5156 45.1289 32.2168 45.0488 31.9746 44.8887C31.7324 44.7285 31.5527 44.5137 31.4355 44.2441C31.3184 43.9707 31.2715 43.6621 31.2949 43.3184C31.3145 42.9512 31.4023 42.6309 31.5586 42.3574C31.7188 42.084 31.9258 41.8594 32.1797 41.6836C32.4336 41.5039 32.7168 41.3711 33.0293 41.2852C33.3457 41.1953 33.6738 41.1504 34.0137 41.1504L34.9395 41.1562ZM38.9473 45.1172C38.5371 45.1094 38.1953 45.0273 37.9219 44.8711C37.6484 44.7148 37.4355 44.5039 37.2832 44.2383C37.1309 43.9727 37.0293 43.6719 36.9785 43.3359C36.9316 43 36.9277 42.6504 36.9668 42.2871L37.0547 41.5723C37.1016 41.1973 37.1895 40.8281 37.3184 40.4648C37.4473 40.1016 37.6211 39.7734 37.8398 39.4805C38.0586 39.1836 38.3281 38.9492 38.6484 38.7773C38.9688 38.6055 39.3438 38.5273 39.7734 38.543C40.1992 38.5547 40.5371 38.6504 40.7871 38.8301C41.0371 39.0098 41.2207 39.2441 41.3379 39.5332C41.4551 39.8223 41.5215 40.1406 41.5371 40.4883C41.5566 40.8359 41.5449 41.1836 41.502 41.5312L41.4141 42.1348H37.5645L37.7227 41.25L40.5234 41.2559L40.5469 41.0977C40.5781 40.8594 40.584 40.6152 40.5645 40.3652C40.5449 40.1113 40.4707 39.8965 40.3418 39.7207C40.2129 39.541 40.002 39.4434 39.709 39.4277C39.4082 39.4121 39.1582 39.4688 38.959 39.5977C38.7637 39.7266 38.6055 39.9004 38.4844 40.1191C38.3633 40.3379 38.2695 40.5762 38.2031 40.834C38.1406 41.0879 38.0957 41.334 38.0684 41.5723L37.9805 42.293C37.957 42.5078 37.9492 42.7285 37.957 42.9551C37.9648 43.1777 38.002 43.3848 38.0684 43.5762C38.1387 43.7676 38.25 43.9238 38.4023 44.0449C38.5586 44.1621 38.7734 44.2246 39.0469 44.2324C39.3516 44.2402 39.625 44.1777 39.8672 44.0449C40.1133 43.9121 40.3379 43.7363 40.541 43.5176L41.0332 44.1797C40.8652 44.3945 40.6699 44.5723 40.4473 44.7129C40.2285 44.8535 39.9922 44.957 39.7383 45.0234C39.4844 45.0898 39.2207 45.1211 38.9473 45.1172ZM45.3809 43.5469L47.8711 38.6602H48.8789L45.5273 45H44.8242L43.6816 38.6602H44.5957L45.3809 43.5469ZM44.332 38.6602L43.2305 45H42.2227L43.3242 38.6602H44.332ZM47.0391 45L48.1406 38.6602H49.1602L48.0586 45H47.0391ZM56.9297 38.6602L56.7715 39.5566H54.3105L54.4688 38.6602H56.9297ZM57.8262 38.6602L56.7246 45H55.7168L56.8184 38.6602H57.8262ZM54.2285 38.6602H55.248L54.5859 41.7188C54.5352 41.9844 54.4785 42.2676 54.416 42.5684C54.3535 42.8691 54.2734 43.1641 54.1758 43.4531C54.0781 43.7422 53.9492 44.0059 53.7891 44.2441C53.6328 44.4785 53.4336 44.666 53.1914 44.8066C52.9531 44.9434 52.6621 45.0078 52.3184 45H51.9844L52.0957 44.0508L52.2832 44.0391C52.5137 44.0234 52.7051 43.9492 52.8574 43.8164C53.0137 43.6836 53.1387 43.5156 53.2324 43.3125C53.3262 43.1055 53.4004 42.8848 53.4551 42.6504C53.5098 42.416 53.5527 42.1875 53.584 41.9648C53.6152 41.7383 53.6465 41.541 53.6777 41.373L54.2285 38.6602ZM62.0566 41.3496L61.8984 42.2344H59.0273L59.1855 41.3496H62.0566ZM60.5273 38.6602L59.4258 45H58.418L59.5195 38.6602H60.5273ZM61.0957 41.9473L61.1074 41.8066C61.1543 41.4355 61.2461 41.0566 61.3828 40.6699C61.5195 40.2793 61.7031 39.9219 61.9336 39.5977C62.1641 39.2695 62.4434 39.0078 62.7715 38.8125C63.1035 38.6172 63.4902 38.5254 63.9316 38.5371C64.3496 38.5488 64.6934 38.6582 64.9629 38.8652C65.2324 39.0684 65.4375 39.3301 65.5781 39.6504C65.7188 39.9707 65.8086 40.3164 65.8477 40.6875C65.8867 41.0547 65.8887 41.4082 65.8535 41.748L65.8359 41.8887C65.7891 42.2637 65.6973 42.6445 65.5605 43.0312C65.4238 43.4141 65.2383 43.7656 65.0039 44.0859C64.7734 44.4062 64.4922 44.6621 64.1602 44.8535C63.832 45.0449 63.4492 45.1348 63.0117 45.123C62.5938 45.1113 62.252 45.0059 61.9863 44.8066C61.7207 44.6035 61.5156 44.3438 61.3711 44.0273C61.2305 43.7109 61.1387 43.3711 61.0957 43.0078C61.0566 42.6406 61.0566 42.2871 61.0957 41.9473ZM62.127 41.8008L62.1094 41.9355C62.0898 42.127 62.0781 42.3516 62.0742 42.6094C62.0742 42.8633 62.0996 43.1133 62.1504 43.3594C62.2051 43.6016 62.3047 43.8066 62.4492 43.9746C62.5977 44.1387 62.8066 44.2266 63.0762 44.2383C63.3691 44.25 63.6191 44.1797 63.8262 44.0273C64.0371 43.8711 64.209 43.6699 64.3418 43.4238C64.4785 43.1777 64.584 42.918 64.6582 42.6445C64.7363 42.3711 64.791 42.1191 64.8223 41.8887L64.8398 41.7539C64.8594 41.5625 64.8691 41.3379 64.8691 41.0801C64.873 40.8223 64.8477 40.5703 64.793 40.3242C64.7383 40.0742 64.6387 39.8652 64.4941 39.6973C64.3496 39.5293 64.1406 39.4395 63.8672 39.4277C63.5703 39.416 63.3184 39.4883 63.1113 39.6445C62.9043 39.8008 62.7324 40.0039 62.5957 40.2539C62.4629 40.5039 62.3594 40.7676 62.2852 41.0449C62.2109 41.3184 62.1582 41.5703 62.127 41.8008ZM68.4844 38.6602H69.5098L69.0176 41.0273C68.9434 41.4141 68.8516 41.7988 68.7422 42.1816C68.6367 42.5645 68.498 42.9316 68.3262 43.2832C68.1582 43.6348 67.9473 43.957 67.6934 44.25C67.4434 44.543 67.1367 44.793 66.7734 45H66.2109L66.3691 44.1211H66.5684C66.7832 43.8945 66.9688 43.6641 67.125 43.4297C67.2812 43.1953 67.416 42.9531 67.5293 42.7031C67.6426 42.4492 67.7383 42.1855 67.8164 41.9121C67.8945 41.6348 67.9609 41.3418 68.0156 41.0332L68.4844 38.6602ZM68.7188 38.6602H71.9297L70.8281 45H69.8145L70.7402 39.6621H68.543L68.7188 38.6602ZM66.1758 44.1094H71.7012L71.2207 46.8691H70.207L70.5293 45H67.0371L66.709 46.8691H65.6895L66.1758 44.1094ZM74.209 41.9766H75.3516L73.3184 45H72.1641L74.209 41.9766ZM75.5332 38.6543L77.8125 38.6602L76.7168 45H75.709L76.6523 39.5391L75.5098 39.5332C75.291 39.5371 75.0938 39.5879 74.918 39.6855C74.7422 39.7793 74.5977 39.9102 74.4844 40.0781C74.375 40.2422 74.3047 40.4336 74.2734 40.6523C74.25 40.8164 74.2559 40.9727 74.291 41.1211C74.3301 41.2656 74.4023 41.3848 74.5078 41.4785C74.6133 41.5723 74.7578 41.625 74.9414 41.6367L76.5469 41.6426L76.3887 42.5332L74.9238 42.5273C74.6504 42.5156 74.4082 42.4629 74.1973 42.3691C73.9863 42.2715 73.8086 42.1387 73.6641 41.9707C73.5195 41.8027 73.4121 41.6074 73.3418 41.3848C73.2754 41.1582 73.252 40.9102 73.2715 40.6406C73.291 40.332 73.3633 40.0547 73.4883 39.8086C73.6133 39.5625 73.7773 39.3535 73.9805 39.1816C74.1875 39.0098 74.4238 38.8789 74.6895 38.7891C74.9551 38.6992 75.2363 38.6543 75.5332 38.6543ZM81.5566 43.5469L84.0469 38.6602H85.0547L81.7031 45H81L79.8574 38.6602H80.7715L81.5566 43.5469ZM80.5078 38.6602L79.4062 45H78.3984L79.5 38.6602H80.5078ZM83.2148 45L84.3164 38.6602H85.3359L84.2344 45H83.2148ZM91.582 42.2109H89.8828L90.0234 41.3438L91.2832 41.3496C91.4941 41.3457 91.6992 41.3164 91.8984 41.2617C92.0977 41.2031 92.2676 41.1074 92.4082 40.9746C92.5488 40.8379 92.6348 40.6504 92.666 40.4121C92.6855 40.252 92.6738 40.1172 92.6309 40.0078C92.5918 39.8984 92.5273 39.8105 92.4375 39.7441C92.3516 39.6777 92.248 39.6289 92.127 39.5977C92.0059 39.5664 91.875 39.5488 91.7344 39.5449L90.6094 39.5391L89.6602 45H88.6523L89.7539 38.6602L91.7461 38.666C92.0156 38.6738 92.2695 38.7109 92.5078 38.7773C92.75 38.8398 92.9609 38.9375 93.1406 39.0703C93.3242 39.2031 93.4648 39.375 93.5625 39.5859C93.6602 39.7969 93.7012 40.0527 93.6855 40.3535C93.6699 40.5918 93.6133 40.8008 93.5156 40.9805C93.4219 41.1602 93.2969 41.3145 93.1406 41.4434C92.9844 41.5684 92.8066 41.668 92.6074 41.7422C92.4121 41.8164 92.2051 41.8672 91.9863 41.8945L91.582 42.2109ZM91.1133 45H88.9863L89.6602 44.1211L91.1367 44.127C91.3516 44.123 91.5469 44.084 91.7227 44.0098C91.8984 43.9355 92.043 43.8262 92.1562 43.6816C92.2695 43.5332 92.3398 43.3457 92.3672 43.1191C92.3945 42.9316 92.3809 42.7734 92.3262 42.6445C92.2715 42.5117 92.1816 42.4102 92.0566 42.3398C91.9316 42.2656 91.7773 42.2246 91.5938 42.2168L90.1758 42.2109L90.3398 41.3438L91.957 41.3496L92.2441 41.6777C92.498 41.7207 92.7109 41.8105 92.8828 41.9473C93.0547 42.0801 93.1816 42.25 93.2637 42.457C93.3457 42.6641 93.3809 42.8945 93.3691 43.1484C93.3535 43.4648 93.2832 43.7402 93.1582 43.9746C93.0332 44.209 92.8672 44.4023 92.6602 44.5547C92.457 44.707 92.2227 44.8203 91.957 44.8945C91.6914 44.9688 91.4102 45.0039 91.1133 45ZM101.924 35.9062L102.732 35.9004C102.701 36.2207 102.635 36.4883 102.533 36.7031C102.436 36.9141 102.303 37.0879 102.135 37.2246C101.971 37.3574 101.773 37.4668 101.543 37.5527C101.316 37.6387 101.061 37.7148 100.775 37.7812C100.322 37.8867 99.9512 38.0605 99.6621 38.3027C99.377 38.541 99.1504 38.8262 98.9824 39.1582C98.8145 39.4902 98.6875 39.8516 98.6016 40.2422C98.5156 40.6328 98.4512 41.0332 98.4082 41.4434L98.332 41.9824H97.5059L97.582 41.4434C97.6484 40.9785 97.7461 40.502 97.875 40.0137C98.0039 39.5215 98.1797 39.0586 98.4023 38.625C98.6289 38.1875 98.9199 37.8125 99.2754 37.5C99.6309 37.1836 100.07 36.9668 100.594 36.8496C100.793 36.8066 100.984 36.7539 101.168 36.6914C101.352 36.6289 101.51 36.5371 101.643 36.416C101.779 36.2949 101.873 36.125 101.924 35.9062ZM100.395 39.0234C100.77 39.0312 101.078 39.125 101.32 39.3047C101.562 39.4844 101.75 39.7168 101.883 40.002C102.016 40.2871 102.102 40.5938 102.141 40.9219C102.18 41.25 102.186 41.5684 102.158 41.877L102.146 42.0117C102.107 42.3828 102.023 42.7539 101.895 43.125C101.766 43.4922 101.59 43.8301 101.367 44.1387C101.145 44.4434 100.873 44.6875 100.553 44.8711C100.232 45.0508 99.8594 45.1348 99.4336 45.123C99.0273 45.1152 98.6914 45.0156 98.4258 44.8242C98.1602 44.6289 97.9531 44.3789 97.8047 44.0742C97.6602 43.7695 97.5645 43.4395 97.5176 43.084C97.4746 42.7246 97.4688 42.375 97.5 42.0352L97.5176 41.9062C97.5332 41.7969 97.5645 41.6914 97.6113 41.5898C97.6582 41.4883 97.709 41.3906 97.7637 41.2969C97.8223 41.1992 97.875 41.1016 97.9219 41.0039C98.082 40.6758 98.2773 40.3594 98.5078 40.0547C98.7383 39.7461 99.0078 39.4941 99.3164 39.2988C99.6289 39.1035 99.9883 39.0117 100.395 39.0234ZM100.131 39.9023C99.7754 39.8906 99.4863 39.9922 99.2637 40.207C99.041 40.418 98.8711 40.6816 98.7539 40.998C98.6406 41.3105 98.5664 41.6133 98.5312 41.9062L98.5195 42.0352C98.5 42.2227 98.4902 42.4395 98.4902 42.6855C98.4941 42.9316 98.5234 43.1719 98.5781 43.4062C98.6367 43.6406 98.7383 43.8359 98.8828 43.9922C99.0273 44.1484 99.2324 44.2305 99.498 44.2383C99.7832 44.25 100.023 44.1836 100.219 44.0391C100.414 43.8945 100.574 43.707 100.699 43.4766C100.824 43.2422 100.92 42.9961 100.986 42.7383C101.057 42.4766 101.105 42.2344 101.133 42.0117L101.145 41.8828C101.16 41.6914 101.162 41.4844 101.15 41.2617C101.143 41.0352 101.105 40.8203 101.039 40.6172C100.977 40.4141 100.873 40.2461 100.729 40.1133C100.584 39.9805 100.385 39.9102 100.131 39.9023ZM105.076 45.1172C104.666 45.1094 104.324 45.0273 104.051 44.8711C103.777 44.7148 103.564 44.5039 103.412 44.2383C103.26 43.9727 103.158 43.6719 103.107 43.3359C103.061 43 103.057 42.6504 103.096 42.2871L103.184 41.5723C103.23 41.1973 103.318 40.8281 103.447 40.4648C103.576 40.1016 103.75 39.7734 103.969 39.4805C104.188 39.1836 104.457 38.9492 104.777 38.7773C105.098 38.6055 105.473 38.5273 105.902 38.543C106.328 38.5547 106.666 38.6504 106.916 38.8301C107.166 39.0098 107.35 39.2441 107.467 39.5332C107.584 39.8223 107.65 40.1406 107.666 40.4883C107.686 40.8359 107.674 41.1836 107.631 41.5312L107.543 42.1348H103.693L103.852 41.25L106.652 41.2559L106.676 41.0977C106.707 40.8594 106.713 40.6152 106.693 40.3652C106.674 40.1113 106.6 39.8965 106.471 39.7207C106.342 39.541 106.131 39.4434 105.838 39.4277C105.537 39.4121 105.287 39.4688 105.088 39.5977C104.893 39.7266 104.734 39.9004 104.613 40.1191C104.492 40.3379 104.398 40.5762 104.332 40.834C104.27 41.0879 104.225 41.334 104.197 41.5723L104.109 42.293C104.086 42.5078 104.078 42.7285 104.086 42.9551C104.094 43.1777 104.131 43.3848 104.197 43.5762C104.268 43.7676 104.379 43.9238 104.531 44.0449C104.688 44.1621 104.902 44.2246 105.176 44.2324C105.48 44.2402 105.754 44.1777 105.996 44.0449C106.242 43.9121 106.467 43.7363 106.67 43.5176L107.162 44.1797C106.994 44.3945 106.799 44.5723 106.576 44.7129C106.357 44.8535 106.121 44.957 105.867 45.0234C105.613 45.0898 105.35 45.1211 105.076 45.1172ZM110.297 38.6602H111.322L110.83 41.0273C110.756 41.4141 110.664 41.7988 110.555 42.1816C110.449 42.5645 110.311 42.9316 110.139 43.2832C109.971 43.6348 109.76 43.957 109.506 44.25C109.256 44.543 108.949 44.793 108.586 45H108.023L108.182 44.1211H108.381C108.596 43.8945 108.781 43.6641 108.938 43.4297C109.094 43.1953 109.229 42.9531 109.342 42.7031C109.455 42.4492 109.551 42.1855 109.629 41.9121C109.707 41.6348 109.773 41.3418 109.828 41.0332L110.297 38.6602ZM110.531 38.6602H113.742L112.641 45H111.627L112.553 39.6621H110.355L110.531 38.6602ZM107.988 44.1094H113.514L113.033 46.8691H112.02L112.342 45H108.85L108.521 46.8691H107.502L107.988 44.1094ZM116.783 45.1172C116.373 45.1094 116.031 45.0273 115.758 44.8711C115.484 44.7148 115.271 44.5039 115.119 44.2383C114.967 43.9727 114.865 43.6719 114.814 43.3359C114.768 43 114.764 42.6504 114.803 42.2871L114.891 41.5723C114.938 41.1973 115.025 40.8281 115.154 40.4648C115.283 40.1016 115.457 39.7734 115.676 39.4805C115.895 39.1836 116.164 38.9492 116.484 38.7773C116.805 38.6055 117.18 38.5273 117.609 38.543C118.035 38.5547 118.373 38.6504 118.623 38.8301C118.873 39.0098 119.057 39.2441 119.174 39.5332C119.291 39.8223 119.357 40.1406 119.373 40.4883C119.393 40.8359 119.381 41.1836 119.338 41.5312L119.25 42.1348H115.4L115.559 41.25L118.359 41.2559L118.383 41.0977C118.414 40.8594 118.42 40.6152 118.4 40.3652C118.381 40.1113 118.307 39.8965 118.178 39.7207C118.049 39.541 117.838 39.4434 117.545 39.4277C117.244 39.4121 116.994 39.4688 116.795 39.5977C116.6 39.7266 116.441 39.9004 116.32 40.1191C116.199 40.3379 116.105 40.5762 116.039 40.834C115.977 41.0879 115.932 41.334 115.904 41.5723L115.816 42.293C115.793 42.5078 115.785 42.7285 115.793 42.9551C115.801 43.1777 115.838 43.3848 115.904 43.5762C115.975 43.7676 116.086 43.9238 116.238 44.0449C116.395 44.1621 116.609 44.2246 116.883 44.2324C117.188 44.2402 117.461 44.1777 117.703 44.0449C117.949 43.9121 118.174 43.7363 118.377 43.5176L118.869 44.1797C118.701 44.3945 118.506 44.5723 118.283 44.7129C118.064 44.8535 117.828 44.957 117.574 45.0234C117.32 45.0898 117.057 45.1211 116.783 45.1172Z" fill="#E38025"/>
<path d="M105.823 11.1033C108.145 11.1033 109.127 9.58516 109.127 8.03726C109.127 6.31075 107.818 5.6261 106.24 5.6261C103.71 5.6261 102.906 7.44191 102.906 8.48377C102.876 10.0912 103.829 11.1033 105.823 11.1033Z" fill="#E48126"/>
<path d="M126.095 21.7897C125.529 22.5637 124.964 23.2781 124.398 23.8734C123.446 24.9153 122.225 25.9572 121.302 25.9572C120.677 25.9572 120.528 25.332 120.528 24.2306C120.528 21.7302 121.63 18.426 121.63 16.2232C121.63 14.8241 121.094 14.6158 120.409 14.6158C120.141 14.6158 119.903 14.6455 119.635 14.6455C119.338 14.6455 119.07 14.6158 118.772 14.4967C118.236 14.2586 118.207 13.3358 117.165 13.3358C112.521 13.3358 108.086 19.706 107.996 24.7962C106.865 25.6892 105.704 26.493 104.841 26.493C104.156 26.493 103.978 25.8381 103.978 24.7962C103.978 21.6111 106.27 15.8065 106.27 14.2586C106.27 13.6632 106.002 13.2762 105.049 13.2762C104.037 13.2762 102.281 13.7525 101.954 14.9432C101.299 17.6818 100.227 21.4027 99.8103 24.2604C98.8279 25.1237 97.7563 25.8976 97.1014 25.8976C96.3572 25.8976 96 24.8855 96 23.4567C96 20.8967 97.0717 16.6995 97.0717 15.9553C97.0717 14.2586 96.3572 13.2465 95.2261 13.2465C94.0949 13.2465 93.1721 13.6334 92.4279 14.8539C91.9814 15.6576 89.8679 19.6762 89.4512 20.3906H89.1238C89.1238 19.9144 89.8084 16.3423 89.8084 15.3302C89.8084 14.0799 89.3917 13.2465 88.1712 13.2465C86.9507 13.2465 86.2363 14.0502 85.9982 15.092C85.3731 17.8009 84.5693 23.1293 84.5693 26.1358C84.5693 27.9813 84.867 29.7376 86.7424 29.7376C87.4865 29.7376 88.0521 29.4697 88.4986 28.5172L92.9638 19.5869H93.2317C92.9638 21.4325 92.7554 23.0102 92.7554 24.3795C92.7554 27.892 93.7377 29.7376 94.9582 29.7376C96.8037 29.7376 98.3814 28.8744 99.84 27.8623C100.197 29.0232 101.09 29.7376 102.787 29.7376C104.633 29.7376 106.895 28.666 108.651 27.5348C109.425 28.9637 110.824 29.7674 112.283 29.7674C114.307 29.7674 116.51 28.2492 117.611 26.9692C118.355 28.8148 119.278 29.8269 120.767 29.8269C123.297 29.8269 125.887 26.999 126.928 25.5404L126.095 21.7897ZM116.599 21.6706C116.42 23.1293 115.349 26.5227 113.682 26.5227C112.64 26.5227 112.342 25.3916 112.342 24.2604C112.342 21.2241 114.843 16.64 117.641 16.64L116.599 21.6706Z" fill="#E48126"/>
<path d="M11.4605 0C5.47721 0 0 2.56 0 9.28744C0 10.4484 0.267907 11.0139 0.744186 11.0139C1.48837 11.0139 2.47069 9.55534 4.13767 6.96558C5.35814 4.91162 9.2279 4.0186 13.0679 4.0186C18.307 4.0186 21.9386 7.17394 21.9386 12.5023C21.9386 18.9321 17.1163 27.6242 10.2698 27.6242C8.75162 27.6242 8.63255 27.0884 8.63255 25.3916C8.63255 23.7842 8.84092 22.2065 9.46604 18.0093C10.0019 14.1991 10.627 9.88278 12.7107 7.05488C12.1451 6.10232 11.4605 5.65581 10.627 5.65581C9.97209 5.65581 9.2279 5.92372 8.42418 6.4893C4.73302 11.9665 4.19721 20.6288 4.19721 28.2493C4.19721 28.9935 4.25674 29.2316 4.85209 29.44C6.28093 30.1842 8.69209 30.8688 10.8056 30.8688C20.2716 30.8688 26.0763 20.8372 26.0763 12.1749C26.106 5.86418 22.5637 0 11.4605 0Z" fill="#E48126"/>
<path d="M30.6903 11.1033C33.0122 11.1033 33.9945 9.58516 33.9945 8.03726C33.9945 6.31075 32.6848 5.6261 31.1071 5.6261C28.5769 5.6261 27.7731 7.44191 27.7731 8.48377C27.7434 10.0912 28.6959 11.1033 30.6903 11.1033Z" fill="#E48126"/>
<path d="M60.7557 23.6949C59.1185 25.213 57.1836 26.5228 55.7548 26.5228C53.5222 26.5228 53.0162 24.3497 53.0162 22.7125C53.0162 21.0753 53.3436 16.64 56.112 16.64C56.499 16.64 56.5585 17.0567 56.5585 17.5925C56.5585 17.9497 56.499 18.4558 56.499 18.8725C56.499 19.8846 56.7073 20.48 57.8087 20.48C59.2376 20.48 60.1008 18.8725 60.1008 17.2949C60.1008 15.0325 58.2553 13.3358 55.6357 13.3358C51.1111 13.3358 48.6404 18.7535 48.6404 22.7423C48.6404 23.3079 48.6999 23.8437 48.7892 24.3497C47.926 25.213 46.9139 25.987 46.1101 25.987C45.485 25.987 45.3362 25.3618 45.3362 24.2604C45.3362 21.76 46.4376 18.4558 46.4376 16.253C46.4376 14.8539 45.9018 14.6456 45.2171 14.6456C44.9492 14.6456 44.7111 14.6753 44.4432 14.6753C44.1455 14.6753 43.8776 14.6456 43.5799 14.5265C43.0441 14.2884 43.0143 13.3656 41.9725 13.3656C37.3288 13.3656 32.8934 19.7358 32.8041 24.826C31.6729 25.7191 30.512 26.5228 29.6488 26.5228C28.9641 26.5228 28.7855 25.8679 28.7855 24.826C28.7855 21.6409 31.0776 15.8363 31.0776 14.2884C31.0776 13.693 30.8097 13.306 29.8571 13.306C28.845 13.306 27.0888 13.7823 26.7613 14.973C25.9576 18.3963 24.4395 23.4567 24.4395 26.3442C24.4395 28.4279 25.2432 29.7972 27.5948 29.7972C29.4404 29.7972 31.7027 28.7256 33.459 27.5944C34.2329 29.0232 35.632 29.827 37.0906 29.827C39.1148 29.827 41.3176 28.3088 42.419 27.0288C43.1632 28.8744 44.086 29.8865 45.5743 29.8865C47.2115 29.8865 48.8785 28.6958 50.1287 27.4456C51.2004 28.8446 52.8376 29.7972 55.0106 29.7972C57.4218 29.7972 59.7436 28.1897 61.4106 26.5228C61.4999 26.4335 61.5892 26.3442 61.6785 26.2549L60.7557 23.6949ZM41.4664 21.6707C41.2878 23.1293 40.2162 26.5228 38.5492 26.5228C37.5074 26.5228 37.2097 25.3916 37.2097 24.2604C37.2097 21.2242 39.7101 16.64 42.5083 16.64L41.4664 21.6707Z" fill="#E48126"/>
<path d="M68.6746 28.9041C69.3592 29.1423 70.0736 29.2911 70.8178 29.3506C70.788 28.8148 69.6271 28.7255 69.2401 28.5469C68.8532 28.3981 68.5555 28.1599 67.6922 27.1181C66.3229 25.4809 65.549 25.4213 64.9834 25.5404C65.7574 27.0883 67.0671 28.279 68.6746 28.9041Z" fill="#E48126"/>
<path d="M81.8314 19.3488C80.4621 19.2297 80.1645 21.1944 79.837 22.2958V22.3553C79.837 22.3553 79.837 22.3553 79.837 22.3851C79.837 22.3553 79.837 22.3256 79.837 22.2958C79.2119 23.8735 78.1105 25.2725 76.6221 26.2846C75.3421 27.1479 73.9133 27.6241 72.4845 27.7134C72.0379 27.7432 71.5617 28.0111 71.5319 28.5172C71.5021 29.0232 71.8593 29.5888 73.3775 29.2316C73.437 29.2316 73.4965 29.2018 73.5263 29.2018C74.0621 29.0828 74.5979 28.9042 75.104 28.666C76.5328 28.0111 77.6938 26.999 78.4975 25.8381C78.2296 26.8502 77.4258 27.6837 76.4138 28.4874C76.0565 28.7255 75.6993 28.9041 75.3124 29.0828C74.1217 29.6186 72.8714 29.9162 71.5914 29.9162C70.2221 29.9162 68.9124 29.5888 67.811 28.9935C67.424 28.7851 67.0668 28.5767 66.7393 28.3088C66.5905 28.1897 66.4714 28.1004 66.3226 27.9814C65.5784 27.3562 64.9235 26.5823 64.4472 25.6893C64.1793 25.213 63.5542 25.0344 63.078 25.3618C62.6612 25.6297 62.5421 26.2251 62.81 26.6716C64.6854 30.0651 68.2872 32 72.0677 32C73.6454 32 75.2231 31.6725 76.7412 30.9581C80.7896 29.0827 83.3198 25.0939 83.2305 20.7776V20.7479C83.171 20.2121 83.2007 19.4679 81.8314 19.3488Z" fill="#E48126"/>
<path d="M77.4841 13.3359C76.7994 13.0978 76.085 12.9489 75.3408 12.8894C75.3706 13.4252 76.5315 13.5145 76.9185 13.6931C77.3055 13.842 77.6031 14.0801 78.4664 15.122C79.8357 16.7592 80.6097 16.8187 81.1752 16.6996C80.4013 15.122 79.0915 13.961 77.4841 13.3359Z" fill="#FCB53E"/>
<path d="M64.3574 22.8614C65.7267 22.9804 66.0244 21.0158 66.3518 19.9144V19.8548C66.3518 19.8548 66.3518 19.8548 66.3518 19.8251C66.3518 19.8548 66.3518 19.8846 66.3518 19.9144C66.977 18.3367 68.0783 16.9376 69.5667 15.9255C70.8467 15.0623 72.2755 14.586 73.7044 14.4967C74.1509 14.4669 74.6272 14.199 74.6569 13.693C74.6867 13.1869 74.3295 12.6214 72.8114 12.9786C72.7518 12.9786 72.6923 13.0083 72.6625 13.0083C72.1267 13.1274 71.5909 13.306 71.0849 13.5442C69.656 14.199 68.4951 15.2111 67.6914 16.3721C67.9593 15.36 68.763 14.5265 69.7751 13.7228C70.1323 13.4846 70.4895 13.306 70.8765 13.1274C72.0672 12.5916 73.3174 12.2939 74.5974 12.2939C75.9667 12.2939 77.2765 12.6214 78.3779 13.2167C78.7649 13.4251 79.1221 13.6335 79.4495 13.9014C79.5983 14.0204 79.7174 14.1097 79.8662 14.2288C80.6104 14.8539 81.2653 15.6279 81.7416 16.5209C82.0095 16.9972 82.6346 17.1758 83.1109 16.8483C83.5276 16.5804 83.6467 15.9851 83.3788 15.5386C81.5035 12.1451 77.9016 10.2102 74.1211 10.2102C72.5435 10.2102 70.9658 10.5376 69.4476 11.2521C65.3993 13.1274 62.869 17.1162 62.9583 21.4325V21.4623C62.9881 21.9981 62.9881 22.7423 64.3574 22.8614Z" fill="#FCB53E"/>
</svg>
