<svg width="140" height="48" viewBox="0 0 140 48" fill="none" xmlns="http://www.w3.org/2000/svg">
<path d="M112.234 19.7758C114.697 19.7758 115.739 18.1657 115.739 16.524C115.739 14.6929 114.35 13.9668 112.676 13.9668C109.993 13.9668 109.14 15.8926 109.14 16.9976C109.109 18.7024 110.119 19.7758 112.234 19.7758Z" fill="white"/>
<path d="M133.733 31.1096C133.134 31.9304 132.534 32.6881 131.934 33.3195C130.924 34.4245 129.629 35.5295 128.651 35.5295C127.988 35.5295 127.83 34.8665 127.83 33.6984C127.83 31.0465 128.998 27.5421 128.998 25.2059C128.998 23.7221 128.43 23.5011 127.703 23.5011C127.419 23.5011 127.167 23.5326 126.883 23.5326C126.567 23.5326 126.283 23.5011 125.967 23.3748C125.399 23.1222 125.367 22.1435 124.262 22.1435C119.337 22.1435 114.633 28.8997 114.538 34.2982C113.339 35.2454 112.108 36.0978 111.192 36.0978C110.466 36.0978 110.276 35.4032 110.276 34.2982C110.276 30.9202 112.707 24.7639 112.707 23.1222C112.707 22.4908 112.423 22.0804 111.413 22.0804C110.34 22.0804 108.477 22.5855 108.13 23.8484C107.435 26.7529 106.299 30.6992 105.857 33.73C104.815 34.6455 103.678 35.4663 102.984 35.4663C102.194 35.4663 101.816 34.3929 101.816 32.8776C101.816 30.1625 102.952 25.711 102.952 24.9218C102.952 23.1222 102.194 22.0488 100.995 22.0488C99.795 22.0488 98.8163 22.4592 98.027 23.7536C97.5535 24.6061 95.312 28.8681 94.87 29.6258H94.5227C94.5227 29.1207 95.2488 25.3322 95.2488 24.2588C95.2488 22.9328 94.8068 22.0488 93.5124 22.0488C92.218 22.0488 91.4603 22.9012 91.2078 24.0062C90.5448 26.8791 89.6924 32.5303 89.6924 35.7189C89.6924 37.6763 90.0081 39.539 91.997 39.539C92.7863 39.539 93.3862 39.2548 93.8597 38.2446L98.5953 28.7734H98.8794C98.5953 30.7308 98.3743 32.404 98.3743 33.8562C98.3743 37.5816 99.4161 39.539 100.711 39.539C102.668 39.539 104.341 38.6234 105.888 37.55C106.267 38.7813 107.214 39.539 109.014 39.539C110.971 39.539 113.37 38.4024 115.233 37.2027C116.054 38.7181 117.538 39.5705 119.085 39.5705C121.231 39.5705 123.568 37.9604 124.736 36.6029C125.525 38.5603 126.504 39.6337 128.082 39.6337C130.766 39.6337 133.512 36.6345 134.617 35.0875L133.733 31.1096ZM123.662 30.9833C123.473 32.5303 122.336 36.1293 120.568 36.1293C119.463 36.1293 119.148 34.9296 119.148 33.73C119.148 30.5098 121.8 25.6479 124.767 25.6479L123.662 30.9833Z" fill="white"/>
<path d="M12.1547 8C5.809 8 0 10.7151 0 17.85C0 19.0813 0.284136 19.6811 0.789266 19.6811C1.57853 19.6811 2.62036 18.1342 4.38832 15.3875C5.68271 13.2092 9.7869 12.262 13.8595 12.262C19.4159 12.262 23.2676 15.6085 23.2676 21.2597C23.2676 28.0789 18.1531 37.2976 10.8919 37.2976C9.28177 37.2976 9.15549 36.7293 9.15549 34.9298C9.15549 33.2249 9.37648 31.5517 10.0395 27.1002C10.6077 23.0592 11.2707 18.4815 13.4807 15.4822C12.8808 14.472 12.1547 13.9984 11.2707 13.9984C10.5762 13.9984 9.7869 14.2826 8.93449 14.8824C5.01973 20.6914 4.45146 29.8785 4.45146 37.9605C4.45146 38.7498 4.5146 39.0024 5.14601 39.2234C6.6614 40.0126 9.21863 40.7388 11.4601 40.7388C21.4996 40.7388 27.6559 30.0994 27.6559 20.9124C27.6874 14.2194 23.9305 8 12.1547 8Z" fill="white"/>
<path d="M32.5497 19.7758C35.0122 19.7758 36.0541 18.1657 36.0541 16.524C36.0541 14.6929 34.6649 13.9668 32.9917 13.9668C30.3082 13.9668 29.4558 15.8926 29.4558 16.9976C29.4242 18.7024 30.4345 19.7758 32.5497 19.7758Z" fill="white"/>
<path d="M64.4361 33.1305C62.6997 34.7406 60.6476 36.1297 59.1322 36.1297C56.7644 36.1297 56.2277 33.825 56.2277 32.0886C56.2277 30.3522 56.575 25.6482 59.5111 25.6482C59.9215 25.6482 59.9846 26.0902 59.9846 26.6585C59.9846 27.0373 59.9215 27.574 59.9215 28.016C59.9215 29.0894 60.1425 29.7208 61.3106 29.7208C62.826 29.7208 63.7416 28.016 63.7416 26.3428C63.7416 23.9434 61.7842 22.1439 59.006 22.1439C54.2072 22.1439 51.5869 27.8897 51.5869 32.1202C51.5869 32.72 51.65 33.2883 51.7447 33.825C50.8292 34.7406 49.7558 35.5614 48.9033 35.5614C48.2404 35.5614 48.0825 34.8984 48.0825 33.7303C48.0825 31.0784 49.2506 27.574 49.2506 25.2378C49.2506 23.754 48.6824 23.533 47.9562 23.533C47.6721 23.533 47.4195 23.5646 47.1354 23.5646C46.8197 23.5646 46.5355 23.533 46.2198 23.4067C45.6516 23.1541 45.62 22.1754 44.515 22.1754C39.59 22.1754 34.886 28.9316 34.7913 34.3301C33.5916 35.2773 32.3603 36.1297 31.4448 36.1297C30.7187 36.1297 30.5292 35.4351 30.5292 34.3301C30.5292 30.9521 32.9602 24.7958 32.9602 23.1541C32.9602 22.5227 32.676 22.1123 31.6658 22.1123C30.5924 22.1123 28.7297 22.6174 28.3824 23.8803C27.53 27.5109 25.9199 32.8779 25.9199 35.9402C25.9199 38.1502 26.7723 39.6024 29.2664 39.6024C31.2238 39.6024 33.6232 38.4659 35.4858 37.2662C36.3067 38.7816 37.7905 39.634 39.3374 39.634C41.4842 39.634 43.8205 38.0239 44.9886 36.6664C45.7779 38.6237 46.7565 39.6971 48.3351 39.6971C50.0715 39.6971 51.8394 38.4343 53.1654 37.1084C54.3019 38.5922 56.0383 39.6024 58.343 39.6024C60.9002 39.6024 63.3627 37.8976 65.1307 36.1297C65.2254 36.035 65.3201 35.9402 65.4148 35.8455L64.4361 33.1305ZM43.9783 30.9837C43.7889 32.5306 42.6524 36.1297 40.8844 36.1297C39.7794 36.1297 39.4637 34.93 39.4637 33.7303C39.4637 30.5101 42.1157 25.6482 45.0833 25.6482L43.9783 30.9837Z" fill="white"/>
<path d="M72.8327 38.6552C73.5589 38.9077 74.3166 39.0656 75.1058 39.1287C75.0742 38.5604 73.843 38.4657 73.4326 38.2763C73.0221 38.1185 72.7064 37.8659 71.7909 36.7609C70.3386 35.0245 69.5178 34.9614 68.918 35.0877C69.7388 36.7293 71.1279 37.9922 72.8327 38.6552Z" fill="white"/>
<path d="M86.7873 28.5209C85.335 28.3946 85.0193 30.4782 84.672 31.6464V31.7095C84.672 31.7095 84.672 31.7095 84.672 31.7411C84.672 31.7095 84.672 31.6779 84.672 31.6464C84.0091 33.3196 82.8409 34.8034 81.2624 35.8768C79.9049 36.7924 78.3895 37.2975 76.8741 37.3922C76.4005 37.4238 75.8954 37.7079 75.8638 38.2446C75.8323 38.7813 76.2111 39.3812 77.8212 39.0023C77.8843 39.0023 77.9475 38.9708 77.9791 38.9708C78.5473 38.8445 79.1156 38.655 79.6523 38.4025C81.1677 37.7079 82.399 36.6345 83.2514 35.4033C82.9672 36.4767 82.1148 37.3606 81.0414 38.2131C80.6626 38.4656 80.2837 38.655 79.8733 38.8445C78.6105 39.4127 77.2845 39.7284 75.927 39.7284C74.4747 39.7284 73.0856 39.3812 71.9175 38.7498C71.5071 38.5288 71.1282 38.3078 70.781 38.0236C70.6231 37.8973 70.4968 37.8026 70.339 37.6764C69.5497 37.0134 68.8551 36.1925 68.35 35.2454C68.0659 34.7403 67.4029 34.5509 66.8978 34.8981C66.4558 35.1823 66.3295 35.8137 66.6136 36.2872C68.6026 39.8863 72.4226 41.9384 76.4321 41.9384C78.1053 41.9384 79.7786 41.5911 81.3887 40.8334C85.6823 38.8445 88.3658 34.614 88.2711 30.0363V30.0047C88.2079 29.4364 88.2395 28.6472 86.7873 28.5209Z" fill="white"/>
<path d="M82.1774 22.1435C81.4513 21.8909 80.6936 21.7331 79.9043 21.6699C79.9359 22.2382 81.1671 22.3329 81.5775 22.5223C81.988 22.6802 82.3037 22.9327 83.2192 24.0377C84.6715 25.7741 85.4923 25.8372 86.0921 25.711C85.2713 24.0377 83.8822 22.8065 82.1774 22.1435Z" fill="white"/>
<path d="M68.2548 32.2461C69.7071 32.3724 70.0228 30.2888 70.37 29.1206V29.0575C70.37 29.0575 70.37 29.0575 70.37 29.0259C70.37 29.0575 70.37 29.0891 70.37 29.1206C71.033 27.4474 72.2011 25.9636 73.7797 24.8902C75.1372 23.9746 76.6526 23.4695 78.168 23.3748C78.6415 23.3432 79.1467 23.0591 79.1782 22.5224C79.2098 21.9857 78.831 21.3858 77.2209 21.7647C77.1577 21.7647 77.0946 21.7963 77.063 21.7963C76.4947 21.9225 75.9265 22.112 75.3898 22.3645C73.8744 23.0591 72.6431 24.1325 71.7907 25.3637C72.0749 24.2903 72.9273 23.4064 74.0007 22.5539C74.3795 22.3014 74.7584 22.112 75.1688 21.9225C76.4316 21.3543 77.7576 21.0386 79.1151 21.0386C80.5674 21.0386 81.9565 21.3858 83.1246 22.0172C83.535 22.2382 83.9138 22.4592 84.2611 22.7434C84.419 22.8697 84.5453 22.9644 84.7031 23.0906C85.4924 23.7536 86.1869 24.5745 86.6921 25.5216C86.9762 26.0267 87.6392 26.2161 88.1443 25.8689C88.5863 25.5847 88.7126 24.9533 88.4284 24.4798C86.4395 20.8807 82.6194 18.8286 78.61 18.8286C76.9367 18.8286 75.2635 19.1759 73.6534 19.9336C69.3598 21.9225 66.6763 26.153 66.771 30.7307V30.7623C66.8026 31.3306 66.8026 32.1199 68.2548 32.2461Z" fill="white"/>
</svg>
