<svg width="32" height="32" viewBox="0 0 32 32" fill="none" xmlns="http://www.w3.org/2000/svg">
<path d="M26.8881 20.9201V23.9201C26.8892 24.1986 26.8322 24.4743 26.7206 24.7294C26.6091 24.9846 26.4454 25.2137 26.2402 25.402C26.035 25.5902 25.7927 25.7336 25.5289 25.8228C25.265 25.912 24.9855 25.9452 24.7081 25.9201C21.631 25.5857 18.6751 24.5342 16.0781 22.8501C13.6619 21.3148 11.6135 19.2663 10.0781 16.8501C8.38809 14.2413 7.33636 11.2711 7.00812 8.1801C6.98313 7.90356 7.01599 7.62486 7.10462 7.36172C7.19324 7.09859 7.33569 6.85679 7.52288 6.65172C7.71008 6.44665 7.93792 6.28281 8.19191 6.17062C8.44589 6.05843 8.72046 6.00036 8.99812 6.0001H11.9981C12.4834 5.99532 12.9539 6.16718 13.3219 6.48363C13.6898 6.80008 13.9302 7.23954 13.9981 7.7201C14.1247 8.68016 14.3596 9.62282 14.6981 10.5301C14.8327 10.888 14.8618 11.277 14.782 11.651C14.7023 12.0249 14.517 12.3682 14.2481 12.6401L12.9781 13.9101C14.4017 16.4136 16.4746 18.4865 18.9781 19.9101L20.2481 18.6401C20.52 18.3712 20.8633 18.1859 21.2372 18.1062C21.6112 18.0264 22.0002 18.0556 22.3581 18.1901C23.2654 18.5286 24.2081 18.7635 25.1681 18.8901C25.6539 18.9586 26.0975 19.2033 26.4146 19.5776C26.7318 19.9519 26.9003 20.4297 26.8881 20.9201Z" stroke="white" stroke-width="2" stroke-linecap="round" stroke-linejoin="round"/>
</svg>
