<svg width="32" height="32" viewBox="0 0 32 32" fill="none" xmlns="http://www.w3.org/2000/svg">
<circle opacity="0.5" cx="16" cy="16" r="16" fill="white"/>
<path fill-rule="evenodd" clip-rule="evenodd" d="M24.8452 21.9998H22.2436C21.4306 21.9998 21.268 21.3613 19.8046 19.9247C18.5037 18.6477 18.0159 18.6477 17.6907 18.6477C17.3655 18.6477 17.2029 18.8074 17.2029 19.2862V21.2017C17.2029 21.8402 16.8777 21.9998 15.5769 21.9998C13.3005 21.9998 10.8615 20.7228 8.91024 18.1689C6.14602 14.4975 5.33301 11.6243 5.33301 11.1454C5.33301 10.8261 5.65821 10.6665 5.98341 10.6665H8.25984C8.91024 10.6665 9.07285 10.8261 9.23545 11.4646C10.2111 14.4975 12.1623 17.0515 12.9753 17.0515C13.3005 17.0515 13.3005 16.7322 13.3005 16.2534V13.2205C13.3005 11.7839 12.4875 11.6243 12.4875 10.9858C12.4875 10.8261 12.6501 10.6665 12.9753 10.6665H16.7151C17.2029 10.6665 17.2029 10.8261 17.2029 11.4646V15.6149C17.2029 16.0937 17.3655 16.2534 17.5281 16.2534C17.8533 16.2534 18.0159 16.0937 18.5037 15.6149C19.9672 14.0186 21.268 11.4646 21.268 11.4646C21.4306 11.1454 21.5932 10.9858 22.081 10.9858C22.894 10.9858 24.3574 10.9858 24.3574 10.9858C24.8452 10.9858 25.0078 11.305 24.8452 11.6243C24.52 12.9012 21.9184 16.413 21.9184 16.413C21.5932 16.7322 21.5932 17.0515 21.9184 17.3707C22.2436 17.69 22.894 18.3285 23.3818 18.967C24.52 20.244 25.333 21.2017 25.333 21.6806C25.333 21.9998 25.1704 21.9998 24.8452 21.9998Z" fill="#303030"/>
</svg>
