<svg width="32" height="32" viewBox="0 0 32 32" fill="none" xmlns="http://www.w3.org/2000/svg">
<circle opacity="0.5" cx="16" cy="16" r="16" fill="white"/>
<path d="M24.3818 11.8795C24.2393 11.1566 23.6695 10.5783 22.9573 10.4337C21.5328 10 16.4046 10 16.4046 10C16.4046 10 11.1339 10 9.85185 10.2892C9.1396 10.4337 8.5698 11.012 8.42735 11.7349C8 13.1807 8 15.9277 8 15.9277C8 15.9277 8 18.8193 8.2849 20.1205C8.42735 20.8434 8.99715 21.4217 9.7094 21.5663C10.9915 21.8554 16.2621 21.8554 16.2621 21.8554C16.2621 21.8554 21.5328 21.8554 22.8148 21.5663C23.5271 21.4217 24.0969 20.8434 24.2393 20.1205C24.5242 18.8193 24.5242 16.0723 24.5242 16.0723C24.5242 16.0723 24.6667 13.1807 24.3818 11.8795ZM14.6952 18.5301V13.4699L19.1111 15.9277L14.6952 18.5301Z" fill="#303030"/>
</svg>
